<svg height="512pt" viewBox="0 -35 512 512" width="512pt" xmlns="http://www.w3.org/2000/svg">
    <path stroke="#027607" style="fill:#027607;" d="m313.242188 47.59375c-34.640626-30.691406-80.582032-47.59375-129.355469-47.59375-48.78125 0-94.722657 16.902344-129.367188 47.59375-35.160156 31.148438-54.519531 72.707031-54.519531 117.023438 0 51.480468 26.71875 99.601562 72.011719 130.683593l-9.148438 38.914063c-1.382812 5.890625.90625 12.035156 5.808594 15.582031 2.617187 1.894531 5.703125 2.851563 8.796875 2.851563 2.703125 0 5.414062-.730469 7.820312-2.203126l45.917969-28.0625c11.890625 3.175782 24.097657 5.230469 36.484375 6.199219-2.761718-11.808593-4.164062-23.894531-4.164062-36.175781 0-23.710938 5.183594-46.703125 15.40625-68.34375 9.75-20.628906 23.628906-39.105469 41.257812-54.910156 35.621094-31.941406 82.703125-49.53125 132.574219-49.53125 2.722656 0 5.4375.0625 8.140625.164062-8.496094-27.082031-24.710938-51.855468-47.664062-72.191406zm-178.851563 74.09375c-2.796875 2.789062-6.667969 4.398438-10.609375 4.398438-3.949219 0-7.820312-1.609376-10.609375-4.398438-2.789063-2.792969-4.390625-6.660156-4.390625-10.601562 0-3.949219 1.601562-7.820313 4.390625-10.609376 2.789063-2.789062 6.660156-4.398437 10.609375-4.398437 3.941406 0 7.8125 1.609375 10.609375 4.398437 2.792969 2.789063 4.390625 6.660157 4.390625 10.609376 0 3.941406-1.597656 7.808593-4.390625 10.601562zm98.511719 0c-2.800782 2.789062-6.671875 4.398438-10.609375 4.398438-3.949219 0-7.820313-1.609376-10.609375-4.398438-2.792969-2.792969-4.390625-6.660156-4.390625-10.601562 0-3.949219 1.597656-7.820313 4.390625-10.609376 2.796875-2.789062 6.660156-4.398437 10.609375-4.398437 3.9375 0 7.808593 1.609375 10.609375 4.398437 2.789062 2.789063 4.390625 6.660157 4.390625 10.609376 0 3.941406-1.601563 7.808593-4.390625 10.601562zm0 0"/>
    <path stroke="#027607" style="fill:#027607;" d="m512 292.402344c0-78.730469-71.433594-142.785156-159.234375-142.785156-87.804687 0-159.238281 64.054687-159.238281 142.785156 0 78.730468 71.433594 142.785156 159.238281 142.785156 19.011719 0 37.554687-2.960938 55.207031-8.816406l39.390625 14.867187c1.722657.652344 3.515625.964844 5.292969.964844 3.773438 0 7.472656-1.417969 10.3125-4.097656 4.171875-3.945313 5.726562-9.925781 4.003906-15.402344l-7.609375-24.1875c33.59375-27.0625 52.636719-65.183594 52.636719-106.113281zm-204.496094-27.554688c-2.792968 2.789063-6.660156 4.390625-10.601562 4.390625-3.949219 0-7.820313-1.601562-10.609375-4.390625-2.789063-2.789062-4.402344-6.660156-4.402344-10.609375 0-3.953125 1.613281-7.8125 4.402344-10.613281 2.789062-2.789062 6.660156-4.386719 10.609375-4.386719 3.941406 0 7.808594 1.597657 10.601562 4.386719 2.796875 2.800781 4.398438 6.660156 4.398438 10.613281 0 3.949219-1.601563 7.820313-4.398438 10.609375zm103.957032 0c-2.789063 2.789063-6.660157 4.390625-10.597657 4.390625-3.949219 0-7.820312-1.601562-10.609375-4.390625-2.792968-2.789062-4.390625-6.660156-4.390625-10.609375 0-3.953125 1.597657-7.8125 4.390625-10.613281 2.789063-2.789062 6.660156-4.386719 10.609375-4.386719 3.9375 0 7.808594 1.597657 10.597657 4.386719 2.792968 2.800781 4.394531 6.660156 4.394531 10.613281 0 3.949219-1.601563 7.820313-4.394531 10.609375zm0 0"/>
</svg>